<?xml version="1.0" standalone="no"?>
<!DOCTYPE svg PUBLIC "-//W3C//DTD SVG 20010904//EN"
	"http://www.w3.org/TR/2001/REC-SVG-20010904/DTD/svg10.dtd">
<svg version="1.0" xmlns="http://www.w3.org/2000/svg"
	 width="960.000000pt" height="960.000000pt" viewBox="0 0 960.000000 960.000000"
	 preserveAspectRatio="xMidYMid meet">
	<metadata>
		Created by potrace 1.11, written by Peter Selinger 2001-2013
	</metadata>
	<g transform="translate(0.000000,960.000000) scale(0.100000,-0.100000)"
	   fill="#000000" stroke="none">
		<path d="M4750 9288 c-39 -66 -186 -207 -281 -271 -205 -136 -446 -217 -740
-248 -140 -15 -413 -6 -529 16 -304 58 -623 165 -963 321 -135 62 -140 63
-161 46 -62 -49 -1206 -1033 -1211 -1042 -3 -5 28 -58 68 -117 290 -420 549
-957 656 -1365 70 -263 92 -423 92 -658 0 -398 -72 -687 -321 -1295 -82 -202
-163 -422 -206 -564 -207 -683 -172 -1403 95 -1947 225 -458 579 -797 1111
-1065 241 -121 396 -182 595 -234 291 -76 536 -108 1000 -130 377 -18 453 -27
524 -61 98 -49 229 -191 334 -367 l35 -58 43 78 c107 197 180 288 279 348 120
72 270 106 525 120 544 28 971 86 1385 190 589 147 967 423 1275 930 88 144
195 366 233 485 129 395 122 866 -23 1433 -65 257 -165 537 -252 710 -149 298
-277 721 -339 1127 -25 162 -26 519 -1 645 74 380 186 696 393 1109 113 225
329 597 382 659 14 15 14 19 1 31 -20 19 -1281 1020 -1297 1030 -8 5 -32 -10
-68 -43 -211 -193 -572 -337 -956 -382 -153 -18 -478 -7 -608 20 -359 75 -732
279 -985 540 -27 28 -52 51 -55 51 -3 0 -16 -19 -30 -42z m177 -622 c566 -241
1088 -373 1388 -352 307 21 702 151 1030 339 l61 35 141 -112 c494 -390 605
-480 609 -490 2 -6 -14 -63 -37 -126 -174 -486 -333 -971 -420 -1283 l-43
-158 -356 1 c-195 0 -1475 1 -2845 0 -1369 0 -2492 4 -2496 8 -3 4 -16 48 -29
97 -75 298 -256 779 -447 1191 l-74 161 103 100 c57 56 229 220 382 365 l279
265 76 -29 c448 -173 1066 -318 1356 -318 306 0 691 105 1055 289 74 37 136
69 137 69 2 1 60 -22 130 -52z m1462 -2430 c-2 -1 -92 -48 -199 -103 -340
-175 -860 -443 -1015 -523 -82 -42 -253 -130 -380 -195 -126 -65 -264 -136
-305 -158 l-75 -41 -347 -4 -347 -4 -23 -47 c-12 -26 -64 -88 -119 -145 l-98
-98 -57 7 c-31 4 -102 21 -158 38 -86 27 -116 32 -201 31 -92 0 -111 -4 -245
-49 -133 -44 -154 -48 -250 -50 -90 -1 -105 -4 -108 -19 -6 -30 61 -48 222
-58 149 -8 190 -18 210 -50 17 -28 -4 -69 -48 -91 -34 -18 -67 -22 -235 -28
-121 -4 -223 -13 -265 -23 -86 -20 -183 -63 -191 -84 -12 -32 13 -34 91 -6
114 40 196 38 394 -10 169 -42 239 -44 364 -12 32 8 55 11 50 7 -5 -4 -117
-63 -249 -131 -132 -67 -307 -158 -390 -201 -153 -79 -238 -112 -320 -124 -51
-8 -66 -22 -41 -40 15 -11 -18 -31 -236 -143 -139 -71 -281 -144 -315 -161
l-63 -31 7 32 c35 189 114 463 248 853 209 610 258 767 300 966 23 112 25 138
25 409 l0 290 2187 0 c1202 0 2184 -2 2182 -4z m1160 -484 c2 -140 74 -480
156 -732 45 -137 167 -465 230 -615 25 -60 45 -109 45 -111 0 -1 -42 -23 -92
-49 -51 -25 -160 -81 -243 -123 -518 -269 -525 -272 -529 -249 -21 102 -32
140 -58 191 -76 156 -202 269 -358 322 -46 16 -86 19 -252 19 l-197 0 36 67
36 66 86 8 c89 7 690 -2 797 -12 l61 -6 52 153 c66 190 120 328 166 419 19 39
32 70 28 70 -5 0 -286 0 -625 0 -340 0 -618 3 -618 7 0 5 143 81 318 170 174
90 459 236 632 325 251 130 316 160 322 148 4 -8 7 -39 7 -68z m-2139 -1342
c-38 -77 -72 -144 -75 -150 -3 -5 -30 -7 -63 -4 -69 7 -115 -4 -229 -57 -109
-51 -162 -62 -246 -54 -67 6 -68 6 -65 -16 2 -16 18 -31 52 -48 42 -22 61 -25
155 -25 58 -1 147 1 196 3 50 2 100 1 113 -3 15 -5 59 -61 123 -157 54 -82
104 -149 110 -149 6 0 48 18 92 40 104 50 181 70 277 70 87 -1 142 -12 207
-42 91 -43 144 -126 128 -200 -21 -96 -201 -198 -400 -228 -121 -18 -200 -7
-412 61 -245 78 -360 88 -523 43 -158 -44 -222 -55 -285 -52 -60 2 -85 -4 -85
-23 0 -21 63 -32 227 -39 171 -7 203 -14 203 -45 0 -14 -46 -33 -142 -60 -59
-16 -92 -39 -85 -59 4 -11 16 -11 102 -1 39 5 66 1 124 -19 41 -14 87 -26 102
-26 l28 0 -67 -111 -66 -111 22 -18 c12 -10 62 -35 111 -56 50 -22 91 -41 91
-44 0 -3 -97 -54 -215 -115 -401 -205 -589 -301 -780 -400 -200 -104 -342
-177 -707 -364 -236 -120 -365 -188 -488 -254 -337 -184 -392 -217 -385 -235
7 -19 -129 56 -260 143 -356 237 -621 560 -768 935 -55 142 -62 170 -43 170 8
0 27 10 43 23 28 24 153 90 638 337 143 73 265 137 272 142 16 13 466 11 621
-2 187 -16 192 -17 192 -45 0 -80 -92 -225 -190 -302 -81 -62 -78 -91 6 -73
165 36 685 46 878 17 60 -9 113 -17 118 -17 4 0 8 29 8 64 0 73 19 182 50 285
l21 70 126 3 126 3 25 75 c57 175 117 332 165 433 59 126 57 137 -24 113 -29
-9 -97 -19 -151 -23 l-98 -6 51 144 c28 79 63 180 78 224 l28 79 258 134 258
135 81 -12 c117 -16 163 -13 236 13 38 14 89 24 122 25 l58 1 -70 -140z m2865
-1075 c20 -120 23 -412 6 -530 -56 -383 -206 -690 -458 -937 -136 -135 -260
-221 -448 -315 -419 -210 -988 -322 -1635 -323 -524 -1 -829 -105 -895 -304
-5 -16 -10 -11 -29 30 -61 132 -179 172 -675 234 -86 11 -171 20 -189 20 -45
0 -33 14 41 51 34 16 130 65 212 107 139 72 441 228 762 393 72 37 142 73 155
80 33 17 40 21 178 91 69 36 238 122 375 193 138 71 316 163 397 205 399 204
485 248 628 323 85 44 220 114 300 155 545 279 578 296 1055 544 184 95 188
97 197 89 4 -3 14 -51 23 -106z"/>
		<path d="M5864 8190 c-27 -11 -30 -15 -38 -62 -7 -37 -6 -37 36 -49 53 -15 68
-13 91 13 13 15 15 24 6 34 -6 7 -8 18 -4 23 3 6 1 20 -5 31 -11 21 -48 26
-86 10z"/>
		<path d="M6028 8183 c-53 -62 -10 -123 75 -106 34 7 39 15 39 61 0 23 -6 40
-18 49 -25 19 -78 16 -96 -4z"/>
		<path d="M1752 8162 c-2 -7 0 -18 5 -23 6 -6 137 -10 339 -10 192 0 333 -4
340 -10 13 -11 140 -12 622 -7 194 2 356 0 358 -4 3 -5 10 -6 15 -2 17 10 81
13 105 4 14 -6 26 -5 29 1 4 6 71 7 178 3 160 -5 308 -7 332 -4 6 0 62 1 126
0 63 -1 127 4 142 9 14 6 29 7 31 2 3 -5 27 -6 53 -3 27 2 57 4 68 3 31 -1
107 -2 145 -2 19 1 58 0 85 0 28 0 80 1 117 4 37 2 70 2 72 0 2 -3 194 -5 425
-6 314 0 424 2 433 11 32 32 -34 43 -237 39 -92 -1 -576 0 -891 3 -171 2 -315
1 -320 -2 -13 -9 -944 -6 -949 2 -3 4 -24 4 -47 0 -48 -9 -868 -11 -881 -3 -5
3 -162 6 -349 7 -273 1 -342 -2 -346 -12z"/>
		<path d="M6325 8173 c-127 -12 -135 -14 -135 -34 0 -20 0 -20 141 -24 36 -1
71 -5 77 -9 7 -4 17 -4 24 0 16 10 69 12 95 3 12 -5 24 -5 27 0 4 6 208 6 876
0 74 0 140 0 145 0 6 1 66 3 135 4 121 2 125 3 128 25 3 18 -1 22 -25 22 -15
1 -345 1 -733 2 -388 0 -709 4 -715 7 -5 4 -23 5 -40 4z"/>
		<path d="M1803 8049 c-18 -5 -35 -14 -38 -20 -9 -13 13 -39 34 -39 13 0 26
-31 55 -127 21 -71 47 -145 57 -165 10 -20 16 -43 13 -51 -3 -8 3 -32 14 -54
11 -21 27 -62 36 -90 10 -29 22 -53 26 -53 21 0 60 98 60 151 0 40 12 83 41
145 15 31 18 52 12 89 -5 43 -7 46 -20 30 -7 -11 -13 -27 -13 -37 0 -52 -40
30 -45 92 -1 8 -11 35 -23 60 -12 25 -22 51 -22 58 0 15 -2 15 -34 2 -18 -7
-37 -5 -67 5 -46 17 -42 17 -86 4z"/>
		<path d="M4340 8046 c-11 -14 -6 -22 34 -57 29 -26 59 -67 80 -108 68 -137
113 -219 134 -246 12 -15 35 -55 51 -90 32 -67 72 -96 134 -99 27 -1 32 3 39
34 4 19 5 62 1 95 -4 33 -6 64 -5 68 4 14 -29 71 -67 117 -22 27 -45 70 -55
107 -12 38 -30 73 -47 89 -16 15 -29 36 -29 46 0 28 -40 42 -125 44 -44 1 -92
4 -106 8 -18 5 -29 3 -39 -8z"/>
		<path d="M2148 8033 c-7 -8 -7 -45 -2 -105 4 -51 7 -163 6 -248 -1 -153 -1
-155 -27 -173 -14 -10 -25 -25 -25 -32 0 -17 75 -39 99 -30 9 4 51 6 93 6 84
-2 98 7 74 44 -19 28 -29 165 -26 345 2 118 3 127 26 151 22 23 23 27 10 38
-10 9 -29 11 -56 6 -24 -4 -46 -3 -53 4 -17 14 -106 9 -119 -6z"/>
		<path d="M2485 8043 c-44 -12 -47 -24 -15 -60 23 -26 29 -40 24 -56 -4 -12 -6
-38 -5 -57 2 -19 3 -44 2 -55 0 -11 1 -65 1 -120 2 -171 0 -189 -28 -209 -18
-14 -18 -16 -2 -32 16 -16 22 -17 53 -5 31 11 39 10 60 -3 13 -9 30 -14 37
-12 7 3 26 7 41 11 l29 6 -3 107 c-2 64 2 124 10 150 9 34 10 51 0 80 -8 23
-10 69 -6 132 3 52 3 100 -1 106 -4 6 -23 11 -42 11 -19 0 -57 3 -85 6 -27 3
-59 3 -70 0z"/>
		<path d="M2722 8037 c-16 -19 -5 -47 19 -47 33 0 71 -32 90 -77 18 -42 41 -55
55 -31 7 11 9 147 2 153 -1 1 -37 6 -79 9 -60 6 -78 4 -87 -7z"/>
		<path d="M3100 8044 c-8 -2 -41 -6 -72 -9 -65 -7 -72 -19 -33 -53 24 -21 25
-25 23 -144 0 -68 0 -163 1 -213 3 -105 -1 -118 -37 -135 -26 -11 -26 -12 -8
-26 14 -10 44 -13 110 -10 50 2 101 -2 114 -7 18 -8 26 -7 39 6 15 15 15 18 0
35 -9 10 -17 29 -17 42 0 13 -5 50 -12 81 -8 38 -8 65 -2 79 6 13 6 52 1 98
-14 137 -5 212 28 212 18 0 20 24 3 38 -12 8 -98 12 -138 6z"/>
		<path d="M3313 8035 c-28 -20 -30 -35 -4 -35 10 0 24 -6 30 -14 13 -16 22
-260 13 -392 -4 -78 -7 -87 -29 -97 -41 -18 -20 -32 53 -33 38 0 79 -4 92 -8
14 -5 36 -3 53 5 27 11 29 15 22 43 -4 17 -7 47 -6 66 1 19 3 115 3 213 1 164
3 180 21 198 36 36 21 54 -46 54 -33 0 -87 4 -120 8 -49 7 -64 5 -82 -8z"/>
		<path d="M3838 8039 c-34 -13 -35 -20 -5 -53 21 -24 22 -33 24 -213 2 -235 -2
-279 -28 -286 -25 -7 -24 -24 2 -37 15 -9 28 -9 49 0 22 9 34 9 58 -4 22 -12
38 -13 65 -5 l35 9 6 128 c8 162 8 201 2 287 -3 39 0 84 6 101 15 43 -1 68
-44 70 -18 0 -58 4 -88 7 -31 4 -67 2 -82 -4z"/>
		<path d="M4088 8044 c-5 -4 -8 -18 -8 -31 0 -22 9 -27 37 -24 18 2 73 -50 73
-69 0 -24 34 -52 54 -44 13 5 16 21 16 85 l0 79 -32 0 c-18 0 -55 3 -83 6 -27
3 -53 3 -57 -2z"/>
		<path d="M4729 8040 c-11 -7 -10 -12 4 -28 9 -10 17 -27 17 -38 0 -11 5 -25
11 -31 7 -7 12 -49 13 -95 3 -152 34 -139 43 18 6 90 8 96 35 120 39 32 32 59
-15 50 -18 -3 -46 -2 -63 3 -17 5 -37 5 -45 1z"/>
		<path d="M4985 8042 c-52 -4 -65 -18 -37 -38 12 -8 22 -25 22 -37 0 -37 36
-161 54 -189 9 -14 21 -62 26 -107 6 -49 15 -88 25 -97 8 -8 15 -28 15 -43 0
-39 20 -61 65 -71 47 -11 55 -7 55 26 0 14 6 37 13 52 13 25 21 79 19 127 0
11 -7 49 -16 85 -8 36 -15 79 -16 97 0 17 -4 34 -9 37 -19 12 -23 77 -6 102
31 48 15 59 -82 59 -49 1 -106 -1 -128 -3z"/>
		<path d="M5293 8038 c-5 -7 -18 -50 -28 -95 -21 -97 -15 -195 17 -262 11 -24
23 -61 25 -82 3 -21 13 -60 23 -86 15 -39 24 -50 50 -57 30 -9 35 -7 68 29
l35 38 -6 106 c-4 73 -12 124 -27 164 -13 33 -20 70 -17 85 4 19 -6 50 -30
100 -34 67 -38 72 -68 72 -18 0 -37 -6 -42 -12z"/>
		<path d="M5541 8041 c-41 -3 -76 -10 -78 -16 -1 -5 11 -18 27 -27 38 -22 47
-44 26 -67 -9 -10 -16 -25 -16 -35 0 -9 -7 -31 -16 -48 -15 -28 -15 -34 2 -70
17 -39 18 -39 30 -16 8 13 13 34 14 48 0 13 12 59 27 101 21 58 34 80 56 93
27 15 33 38 11 41 -5 1 -42 -1 -83 -4z"/>
		<path d="M5881 8035 c-18 -8 -41 -15 -50 -15 -9 0 -32 -17 -52 -38 -29 -30
-39 -52 -53 -117 -26 -123 -28 -180 -7 -218 11 -17 22 -43 26 -57 18 -61 66
-103 153 -133 63 -22 70 1 22 72 -18 27 -28 52 -25 65 2 11 7 101 9 199 5 176
5 179 30 202 52 48 20 71 -53 40z"/>
		<path d="M6008 8043 c-22 -6 -23 -26 -3 -43 8 -7 15 -27 15 -44 0 -18 5 -37
11 -43 8 -8 8 -17 -1 -33 -10 -18 -10 -31 1 -62 10 -31 10 -43 -1 -62 -7 -15
-10 -39 -6 -63 21 -131 23 -122 -37 -206 -19 -27 -15 -55 6 -39 7 5 28 12 47
16 48 9 138 71 152 104 5 15 16 38 23 52 7 14 13 51 14 83 0 32 3 61 5 66 8
12 -29 139 -46 159 -8 9 -19 29 -26 45 -7 17 -19 27 -32 27 -11 0 -23 6 -26
14 -5 13 -57 38 -73 35 -3 -1 -14 -3 -23 -6z"/>
		<path d="M6307 8033 c-22 -26 -22 -30 7 -37 19 -5 25 -14 29 -48 5 -50 2 -437
-4 -441 -2 -1 -12 -6 -22 -12 -34 -19 -12 -30 58 -31 39 -1 78 -4 88 -9 10 -4
31 -2 47 5 28 12 30 15 23 49 -4 20 -6 47 -5 61 2 14 4 63 5 110 1 47 5 90 9
96 4 6 2 38 -4 71 -14 74 -4 133 23 140 22 6 25 28 7 40 -7 4 -38 8 -68 8 -30
1 -82 5 -115 9 -53 7 -62 6 -78 -11z"/>
		<path d="M7010 8042 c0 -5 -46 -8 -102 -8 -90 1 -103 -1 -106 -16 -2 -12 6
-21 22 -28 25 -9 34 -36 27 -80 -3 -18 -12 -226 -12 -257 1 -13 2 -40 3 -60 3
-55 -9 -90 -32 -96 -16 -4 -18 -9 -11 -29 7 -19 14 -23 47 -20 71 6 149 4 181
-3 25 -6 33 -3 42 13 9 17 7 24 -13 39 -24 17 -25 24 -29 148 -2 72 1 150 6
175 10 52 10 45 3 130 -3 36 -6 73 -6 83 0 16 -20 26 -20 9z"/>
		<path d="M7120 8041 c-59 -8 -58 -27 4 -68 27 -17 58 -49 70 -70 36 -64 51
-51 52 45 1 106 -3 109 -126 93z"/>
		<path d="M7353 8044 c-39 -9 -47 -29 -20 -56 24 -24 24 -28 25 -214 2 -233 -3
-280 -29 -287 -12 -3 -17 -11 -13 -21 9 -22 41 -30 74 -16 23 9 33 9 52 -4 18
-12 31 -13 63 -5 l40 10 -3 97 c-2 67 2 115 13 154 11 39 13 63 6 75 -11 22
-18 169 -8 179 12 12 8 62 -5 71 -7 4 -26 8 -43 9 -16 1 -52 4 -80 7 -27 3
-60 3 -72 1z"/>
		<path d="M7584 8036 c-10 -26 3 -46 30 -46 29 0 86 -51 86 -78 0 -25 25 -46
45 -38 12 4 15 23 15 86 0 77 -1 80 -24 80 -12 0 -51 3 -84 6 -52 6 -63 4 -68
-10z"/>
		<path d="M4399 7868 c-4 -92 -2 -119 13 -166 17 -51 17 -54 -2 -85 -11 -18
-20 -44 -20 -59 0 -14 -12 -41 -26 -58 -36 -42 -23 -52 67 -48 69 3 74 5 77
26 3 17 -2 25 -18 29 -31 8 -52 65 -38 104 6 17 7 46 3 67 -4 20 -7 54 -6 76
2 43 -25 136 -40 136 -5 0 -9 -10 -10 -22z"/>
		<path d="M2769 7838 c-6 -23 -20 -48 -30 -56 -10 -7 -19 -21 -19 -31 0 -20 68
-131 80 -131 18 0 30 30 24 56 -3 16 -10 65 -14 109 -5 44 -9 83 -9 88 -3 22
-22 1 -32 -35z"/>
		<path d="M4141 7857 c-6 -16 -11 -34 -11 -41 0 -7 -11 -22 -25 -34 -29 -25
-32 -44 -10 -62 8 -7 15 -18 15 -24 0 -22 56 -80 69 -72 14 9 5 158 -14 221
l-12 40 -12 -28z"/>
		<path d="M7137 7873 c-2 -5 -7 -20 -11 -35 -3 -15 -17 -35 -30 -44 -21 -13
-23 -19 -15 -44 6 -15 19 -36 30 -46 10 -9 19 -25 19 -35 0 -24 18 -33 35 -19
19 16 21 200 3 218 -14 14 -25 15 -31 5z"/>
		<path d="M7647 7873 c-3 -4 -8 -25 -12 -45 -4 -23 -14 -40 -26 -43 -34 -11
-31 -40 11 -104 64 -97 76 -83 61 74 -9 99 -21 140 -34 118z"/>
		<path d="M1826 7674 l1 -136 -28 -26 c-16 -14 -29 -34 -29 -44 0 -15 7 -18 38
-17 21 2 43 -1 49 -4 16 -10 94 15 90 28 -2 5 -12 14 -23 19 -37 17 -54 63
-58 155 -3 70 -24 161 -38 161 -2 0 -2 -61 -2 -136z"/>
		<path d="M3686 7618 c-9 -17 -16 -37 -16 -44 0 -7 -21 -30 -46 -53 -56 -49
-51 -65 17 -59 33 4 55 0 70 -10 33 -23 44 -3 29 58 -9 38 -9 55 -1 63 24 24
6 77 -25 77 -7 0 -20 -14 -28 -32z"/>
		<path d="M6674 7608 c-22 -53 -60 -100 -86 -110 -38 -15 -13 -33 44 -33 32 0
62 -6 72 -14 30 -25 41 0 28 61 -9 35 -9 55 -2 62 22 22 5 76 -25 76 -7 0 -20
-19 -31 -42z"/>
		<path d="M2853 7603 c-11 -16 -24 -39 -30 -53 -6 -14 -30 -35 -56 -48 -29 -15
-45 -29 -44 -40 1 -15 12 -17 86 -16 l84 1 3 49 c1 27 4 54 5 59 5 18 -10 75
-20 75 -5 0 -18 -12 -28 -27z"/>
		<path d="M4213 7595 c-13 -19 -23 -39 -23 -44 0 -13 -66 -61 -84 -61 -10 0
-16 -9 -16 -22 0 -22 4 -23 84 -23 l83 -1 6 75 c5 69 -3 111 -21 111 -4 0 -17
-16 -29 -35z"/>
		<path d="M7728 7613 c-9 -10 -23 -32 -32 -50 -17 -34 -65 -73 -90 -73 -10 0
-16 -9 -16 -22 0 -22 4 -23 85 -23 l85 0 0 30 c1 17 3 47 6 68 6 42 -1 87 -15
87 -4 0 -15 -8 -23 -17z"/>
		<path d="M1755 7379 c-2 -3 -2 -14 0 -25 2 -10 4 -21 4 -24 1 -3 736 -6 1634
-7 897 -2 1679 -3 1737 -4 58 0 691 0 1408 1 l1303 1 -3 26 -3 26 -480 -1
c-475 -1 -1357 0 -1902 2 -155 1 -284 4 -287 7 -3 3 -32 2 -63 -1 -52 -6 -938
-11 -1558 -8 -633 3 -1140 6 -1448 9 -187 2 -340 1 -342 -2z"/>
	</g>
</svg>
